<?xml version="1.0" encoding="UTF-8"?><svg id="Layer_1" xmlns="http://www.w3.org/2000/svg" viewBox="0 0 1688.8 500"><circle cx="111.99" cy="250" r="61.98" transform="translate(-38.6 21.17) rotate(-9.22)"/><path d="M50,173.97h123.97V50c-68.47,0-123.97,55.5-123.97,123.97Z"/><path d="M50,450c68.47,0,123.97-55.5,123.97-123.97H50v123.97Z"/><path d="M188.02,50V311.98c72.35,0,130.99-58.68,130.99-130.99S260.37,50,188.02,50Z"/><path d="M791.29,147.7c-16.97-12.41-38.62-19.3-64.89-19.3-68.34,0-110.7,48.64-110.7,114.05s43.19,114.05,114.47,114.05c56.85,0,83.6-30.28,95.73-71.7h-64.7c-4.19,10.48-9.23,21.39-32.29,21.39s-46.12-15.94-46.12-46.12h145.34c.05-14.26,4.32-82.26-36.84-112.36Zm-108.5,71.69c0-29.77,18.03-44.87,43.6-44.87s43.61,15.09,43.61,44.87h-87.21Z"/><path d="M865.13,50h-15.19V349.8h67.09V93.86c0-23.22-17.02-43.86-51.9-43.86Z"/><path d="M1047.62,128.41c-70.02,0-99.37,34.8-101.47,75.89h62.89c2.1-20.55,13.84-29.77,38.16-29.77,18.44,0,27.25,7.55,27.25,20.13,0,18.03-27.25,22.23-54.93,27.67-50.32,10.06-81.77,29.77-81.77,72.54,0,36.06,25.16,61.64,70.45,61.64,28.51,0,53.67-13.42,67.51-29.36h.84c0,15.1-.33,12.48-.33,22.79h65.32V219.4c0-67.51-33.55-90.99-93.93-90.99Zm26.84,142.98c0,20.55-13.84,39-42.77,39-16.35,0-26.83-7.55-26.83-25.16,0-13.41,8.8-24.32,35.22-30.19,15.52-3.35,25.99-6.29,34.38-9.65v26Z"/><path d="M1517.15,128.4c-71.7,0-114.89,47.38-114.89,114.05s43.19,114.05,114.89,114.05,121.65-47.38,121.65-114.05-50.37-114.05-121.65-114.05Zm0,177.78c-29.77,0-47.8-22.22-47.8-63.73s18.03-63.73,47.8-63.73,47.38,22.22,47.38,63.73-18.03,63.73-47.38,63.73Z"/><path d="M494.92,128.41c-56.91,0-71.31,4.8-91.25,23.55-9.96,9.37-28.14,27.95-28.14,91.63v23.35h0v183.06h15.82c29.51,0,53.44-23.92,53.44-53.44v-17.62h0v-51.43h.86c8.66,11.68,28.14,29,60.61,29,56.71,0,93.06-55.39,93.06-119.46s-33.52-108.65-104.4-108.65Zm-6.84,171.38c-26.77,0-39.95-22.16-39.95-59.7s13.18-59.69,39.95-59.69,39.95,22.16,39.95,59.69-13.18,59.7-39.95,59.7Z"/><path d="M1382.79,243.59c0-63.68-18.18-82.26-28.14-91.63-19.94-18.76-34.34-23.55-91.25-23.55-70.88,0-104.4,44.58-104.4,108.65s36.36,119.46,93.06,119.46c32.47,0,53.75-13.31,68.08-32.78v2.34c0,49.74-26.78,61.28-49.25,61.28-35.27,0-48.58-11.79-49.2-15.85v.13s-62.64,0-62.64,0c0,37.74,35,78.37,111.84,78.37,55.7,0,111.9-39.08,111.9-123.93v-82.48Zm-112.55,56.19c-26.77,0-39.95-22.16-39.95-59.7s13.18-59.69,39.95-59.69,39.95,22.16,39.95,59.69-13.18,59.7-39.95,59.7Z"/></svg>