<svg width="1113" height="234" viewBox="0 0 1113 234" fill="none" xmlns="http://www.w3.org/2000/svg">
<path fill-rule="evenodd" clip-rule="evenodd" d="M79.691 81.4599C75.2439 96.4547 70.3546 128.817 67.0805 138.271H20.1727C14.3566 132.444 0 56.9243 0 35.8692H33.6197C33.6197 38.7747 43.0261 105.313 44.9654 113.408C50.1507 86.4218 55.9341 62.0125 64.0509 35.8692H95.3279C103.435 62.0125 109.227 86.4218 114.412 113.408C116.35 105.313 125.737 38.7747 125.737 35.8692H159.379C159.379 56.9243 145.013 132.442 139.201 138.271H92.2968C89.0242 128.817 84.1348 96.4547 79.691 81.4599ZM485.602 56.5115C477.15 56.1859 471.724 58.2252 469.314 62.6621C466.879 67.1006 465.834 75.9402 466.158 89.2182C465.897 102.457 467.006 111.261 469.45 115.626C471.886 119.996 477.331 121.997 485.775 121.652C493.89 121.997 499.069 119.996 501.304 115.626C503.524 111.261 504.49 102.457 504.164 89.2182C504.424 75.9402 503.424 67.099 501.161 62.6621C498.915 58.2252 493.72 56.1859 485.604 56.5115M484.873 31.4883C500.169 31.3045 511.831 32.7658 519.876 35.8536C527.932 38.9569 533.404 44.6916 536.318 53.0638C539.223 61.4532 540.613 73.488 540.491 89.1995C540.709 104.498 539.359 116.332 536.437 124.684C533.522 133.055 528.047 138.867 520.01 142.077C511.974 145.306 500.385 146.841 485.233 146.676C470.291 146.802 458.791 145.18 450.764 141.79C442.729 138.415 437.202 132.516 434.197 124.125C431.177 115.739 429.733 104.084 429.842 89.1995C429.617 73.9538 430.942 62.1386 433.792 53.729C436.652 45.3226 442.063 39.4773 450.062 36.1948C458.06 32.9123 469.671 31.3434 484.875 31.4883M353.709 170.853C341.472 170.6 328.24 172.203 324.731 175.723C321.214 179.242 319.652 178.627 320.085 189.144C319.716 199.662 321.267 199.012 324.8 202.474C328.329 205.94 341.578 207.528 353.815 207.238C365.577 207.529 378.455 205.94 381.673 202.474C384.921 199.01 386.338 199.662 385.903 189.144C386.273 178.627 384.866 179.242 381.612 175.723C378.357 172.203 365.477 170.6 353.707 170.853M352.742 144.116C371.446 143.99 385.715 145.088 395.562 147.398C405.411 149.724 412.103 154.037 415.648 160.334C419.182 166.646 420.878 177.329 420.698 189.144C420.934 200.638 419.265 211.171 415.691 217.469C412.11 223.747 405.411 228.112 395.562 230.53C385.723 232.948 371.534 234.099 353.003 233.993C334.695 234.082 320.644 232.858 310.822 230.312C301.002 227.768 294.247 223.348 290.576 217.035C286.895 210.723 285.146 200.332 285.298 189.143C285.057 177.669 286.669 167.15 289.097 160.837C292.597 154.524 300.343 150.12 310.13 147.668C319.915 145.192 334.128 144.021 352.743 144.113M361.031 55.2792C352.617 54.9177 347.214 57.1736 344.815 62.0623C342.407 66.9526 341.326 67.5446 341.642 82.1422C341.407 96.7539 342.471 97.2976 344.915 102.113C347.341 106.913 352.753 109.131 361.167 108.734C369.248 109.131 374.405 106.913 376.634 102.113C378.843 97.2976 379.819 96.7554 379.503 82.1422C379.746 67.5462 378.771 66.9526 376.534 62.0623C374.288 57.172 369.123 54.9177 361.03 55.2792M360.318 31.8981C375.604 31.736 387.276 33.1973 395.313 36.2633C403.346 39.3667 408.838 45.0858 411.752 53.4767C414.666 61.8458 416.036 66.4276 415.894 82.1266C416.109 97.4238 414.738 101.787 411.825 110.157C408.92 118.532 403.436 124.321 395.403 127.551C387.366 130.765 375.768 132.294 360.616 132.153C345.679 132.279 334.192 130.634 326.156 127.262C318.121 123.869 312.599 117.973 309.588 109.582C306.566 101.194 305.141 97.0249 305.258 82.1266C305.041 66.8981 306.368 62.5484 309.227 54.1419C312.077 45.7354 317.505 39.8901 325.505 36.6076C333.504 33.3251 345.111 31.7547 360.318 31.8981ZM414.355 0.023207C421.606 -0.191785 426.23 1.08726 428.243 3.84943C430.255 6.60849 431.129 6.93254 430.903 15.1973C431.174 23.4573 430.299 23.7673 428.308 26.4734C426.321 29.1982 421.696 30.4414 414.445 30.2264C406.903 30.4414 402.053 29.1966 399.878 26.4734C397.707 23.7689 396.741 23.4589 396.967 15.1973C396.696 6.93254 397.643 6.60694 399.818 3.84943C401.964 1.08726 406.815 -0.190227 414.357 0.023207M211.151 72.1685H250.724C250.758 64.1951 249.098 59.0742 245.729 57.0131C242.345 54.9582 237.26 54.0936 230.469 54.3803C223.448 54.2011 218.519 55.3197 215.659 57.736C212.808 60.1539 211.304 64.918 211.151 72.1685ZM251.183 107.767H290.696C290.611 115.74 289.116 122.776 286.203 127.918C283.308 133.077 279.205 136.937 273.892 139.66C268.582 142.278 262.269 144.007 254.936 144.948C247.63 145.865 239.497 146.299 230.559 146.225C214.576 146.299 202.223 144.443 193.483 140.67C184.762 136.917 178.748 130.822 175.419 122.377C172.097 113.952 170.564 102.767 170.829 88.8568C170.737 74.5318 172.351 63.1497 175.642 54.7059C178.963 46.2635 184.997 40.2204 193.743 36.5936C202.5 32.9668 215.028 31.1814 231.297 31.2718C246.56 31.1456 258.545 32.7331 267.294 36.0156C276.031 39.3184 282.192 45.1792 285.763 53.5701C289.343 61.9595 291.03 73.541 290.822 88.6777L290.778 94.685H210.989C210.718 104.86 211.91 111.263 214.578 115.016C217.24 118.752 222.624 120.624 230.732 120.464C237.009 120.663 241.959 120.119 245.593 118.535C249.219 116.927 251.079 112.85 251.186 107.765" fill="#444446"/>
<path d="M599.946 30.5656L598.722 48.6779H599.208C607.532 33.2546 615.122 29.3364 636.17 29.3364C650.366 29.3364 661.134 32.5114 667.502 38.8833C676.313 47.2166 679.495 59.2156 679.495 85.6455C679.495 113.805 676.556 126.524 667.743 136.084C661.375 143.178 651.833 146.116 635.429 146.116C615.365 146.116 607.044 141.464 601.415 126.774H600.92V193.853H567.389V30.5656H599.944H599.946ZM600.921 85.8979C600.921 114.528 605.088 120.642 623.933 120.642C642.779 120.642 646.452 115.034 646.452 88.336C646.452 59.2156 643.025 54.0729 623.436 54.0729C603.848 54.0729 600.923 59.7017 600.923 85.8979" fill="#1686F7"/>
<path d="M733.633 30.5659L731.92 47.9381H732.407C739.747 33.7409 747.342 29.0874 762.511 29.0874C777.681 29.0874 786.5 34.9685 790.17 47.2168C791.882 53.0808 792.136 56.7606 792.136 77.8157H762.265V73.1591C762.265 58.2219 759.821 54.3084 750.27 54.3084C742.927 54.3084 737.543 57.7358 735.102 64.103C733.876 67.5304 733.632 69.4809 733.632 78.3018V144.888H701.074V30.5659H733.632H733.633Z" fill="#1686F7"/>
<path d="M905.977 39.6236C914.056 47.706 917.238 59.4496 917.238 83.4461C917.238 135.834 907.941 146.119 861.19 146.119C834.015 146.119 820.063 141.229 812.966 129.721C807.337 120.178 806.111 111.608 806.111 82.7061C806.111 58.7111 809.297 47.2184 818.351 39.1391C826.675 31.5427 837.2 29.3398 863.147 29.3398C887.379 29.3398 897.903 31.7936 905.978 39.6252M839.158 86.3874C839.158 116.496 842.097 121.384 861.433 121.384C880.77 121.384 884.196 116.496 884.196 84.6737C884.196 58.9635 880.768 54.0763 861.922 54.0763C843.077 54.0763 839.158 58.7111 839.158 86.3874Z" fill="#1686F7"/>
<path fill-rule="evenodd" clip-rule="evenodd" d="M1019.1 80.1669L1007.26 99.9461H964.37C953.468 99.9461 944.541 91.0722 944.541 80.1045C944.541 74.5989 946.756 69.6478 950.366 66.0974C953.974 62.4939 958.918 60.2661 964.37 60.2661H1007.19L1019.1 80.1669Z" fill="#1686F7"/>
<path fill-rule="evenodd" clip-rule="evenodd" d="M1112.62 80.1032C1112.62 85.6104 1110.4 90.5645 1106.79 94.1026C1103.24 97.7138 1098.24 99.9447 1092.79 99.9447H1053.51L1060.1 88.9786C1063.33 83.5181 1063.33 76.7506 1060.1 71.2901L1053.51 60.2632H1092.79C1103.75 60.2632 1112.62 69.1355 1112.62 80.1016" fill="#1686F7"/>
<path fill-rule="evenodd" clip-rule="evenodd" d="M1060.09 88.9801L1053.5 99.9462H1007.26L1019.1 80.1685L1007.2 60.2646H1053.5L1060.09 71.2931C1063.33 76.7505 1063.33 83.5196 1060.09 88.9801Z" fill="#0169E6"/>
<path fill-rule="evenodd" clip-rule="evenodd" d="M1053.51 99.9463L1042.24 118.756L1031.08 137.384C1027.41 143.597 1020.82 147.026 1014.04 147.026C1010.55 147.026 1007.07 146.135 1003.9 144.23C994.524 138.598 991.418 126.431 997.063 116.988L1007.26 99.9478H1053.51V99.9463Z" fill="#10C8ED"/>
<path fill-rule="evenodd" clip-rule="evenodd" d="M1053.51 60.2646H1007.2L997.062 43.2849C991.417 33.9001 994.525 21.7359 1003.9 16.1041C1007.07 14.1972 1010.62 13.2422 1014.1 13.2422C1020.82 13.2422 1027.41 16.7335 1031.08 22.9464L1042.23 41.512L1053.5 60.2646H1053.51Z" fill="#10C8ED"/>
</svg>
